<?xml version="1.0" encoding="utf-8"?>
<!-- Generator: Adobe Illustrator 18.1.1, SVG Export Plug-In . SVG Version: 6.00 Build 0)  -->
<svg version="1.1" id="Layer_1" xmlns="http://www.w3.org/2000/svg" xmlns:xlink="http://www.w3.org/1999/xlink" x="0px" y="0px"
	 viewBox="0 0 232 263" enable-background="new 0 0 232 263" xml:space="preserve">
<rect x="0.2" y="-0.1" fill="#FDB71A" width="231.7" height="263.4"/>
<g>
	<g>
		<circle fill="#5F6369" cx="116.9" cy="98" r="50"/>
		<path fill="#FDB71A" d="M116.9,143.4c-25,0-45.4-20.4-45.4-45.4s20.4-45.4,45.4-45.4c25,0,45.4,20.4,45.4,45.4
			S141.9,143.4,116.9,143.4z"/>
		<g>
			<path fill="#FFFFFF" d="M138.1,115.4l-1.6,1.5c-1.2,1.1-2.9,1-4-0.2l-6.1-6.7c-1.1-1.2-1-2.9,0.2-4l1.6-1.5c1.2-1.1,2.9-1,4,0.2
				l6.1,6.7C139.4,112.6,139.3,114.4,138.1,115.4z"/>
			<path fill="#FFFFFF" d="M131.2,123.1l-1.6,1.5c-1.2,1.1-2.9,1-4-0.2l-6.7-7.3c-1.1-1.2-1-2.9,0.2-4l1.6-1.5c1.2-1.1,2.9-1,4,0.2
				l6.7,7.3C132.4,120.3,132.3,122,131.2,123.1z"/>
			<path fill="#FFFFFF" d="M124,130.7l-1.6,1.5c-1.2,1.1-2.9,1-4-0.2l-6.6-7.3c-1.1-1.2-1-2.9,0.2-4l1.6-1.5c1.2-1.1,2.9-1,4,0.2
				l6.6,7.3C125.2,127.9,125.2,129.7,124,130.7z"/>
			<path fill="#FFFFFF" d="M145.7,108.5L144,110c-1.2,1.1-2.9,1-4-0.2l-6.1-6.7c-1.1-1.2-1-2.9,0.2-4l1.6-1.5c1.2-1.1,2.9-1,4,0.2
				l6.1,6.7C146.9,105.7,146.8,107.5,145.7,108.5z"/>
			<path fill="#FFFFFF" d="M118,90.5l-7.3-6.9c-0.5-0.4-1.2-0.4-1.6,0c-3.7,3.6-19.3,18.7-20.7,20.3c-2.6,2.9,1.8,7.9,5.1,5.5
				c0,0,6.8-7,8-7.8s3.5,0.5,2.2,2.3c0,0-6.4,6.4-8,7.9c-1.9,1.8-0.1,7.1,4.9,5.2l8.6-8.5c1.4-1.2,3.2,0,1.9,1.9l-8.2,8.4
				c-1.9,2,1,8,5.8,4.6c-0.6-2.1,1.6-8.2,7.3-7.3c-1.1-2.4,2.9-8.3,7.1-7.2c-0.9-3.6,4.1-8.1,7.3-7.3c-0.7-5.5,6-8.6,8.5-7.1
				c2.5,1.5,7,6.2,7,6.2c2.2-1.6,11.8-16.3-2.5-27.9c-12.6-10.2-24.1,0.6-24.1,0.6l7,7C131.4,84.6,122.1,94.4,118,90.5z"/>
			<path fill="#FFFFFF" d="M110,126.7l4.4,4.9C112,133.4,108.4,129.8,110,126.7z"/>
			<path fill="#FFFFFF" d="M88.1,100.4L109,79.7c0.3-0.3,0.9-0.3,1.2,0l8.6,8c1.7,0.7,6.8-0.2,5.6-5.2l-10-9.7
				c-0.1-0.1-0.1-0.1-0.2-0.2c-1.2-0.8-12.1-8-22.8,0.1C80,81.2,81.9,93.6,88.1,100.4z"/>
		</g>
	</g>
	<rect x="44.4" y="158.6" fill="none" width="143.4" height="13"/>
	<text transform="matrix(1 0 0 1 76.9986 171.3791)" fill="#FFFFFF" font-family="'Copperplate-Bol'" font-size="18">INTEGRITY</text>
	<rect x="44.4" y="179.3" fill="none" width="143.4" height="35.9"/>
	<text transform="matrix(1 0 0 1 81.188 189.2277)"><tspan x="0" y="0" fill="#FFFFFF" font-family="'AGaramondPro-Regular'" font-size="14">We do what </tspan><tspan x="-3" y="14" fill="#FFFFFF" font-family="'AGaramondPro-Regular'" font-size="14">we promised</tspan></text>
</g>
</svg>
