<?xml version="1.0" encoding="utf-8"?>
<!-- Generator: Adobe Illustrator 18.1.1, SVG Export Plug-In . SVG Version: 6.00 Build 0)  -->
<svg version="1.1" id="Layer_1" xmlns="http://www.w3.org/2000/svg" xmlns:xlink="http://www.w3.org/1999/xlink" x="0px" y="0px"
	 viewBox="0 0 232 263" enable-background="new 0 0 232 263" xml:space="preserve">
<rect x="0.1" y="-0.3" fill="#5F6369" width="231.7" height="263"/>
<g>
	<g>
		<circle fill="#FDB71A" cx="116.5" cy="97.6" r="50"/>
		<path fill="#5F6369" d="M116.5,143c-25,0-45.4-20.4-45.4-45.4s20.4-45.4,45.4-45.4c25,0,45.4,20.4,45.4,45.4S141.5,143,116.5,143z
			"/>
		<g>
			<g>
				<path fill="#FFFFFF" d="M142.3,82.4l-0.9-0.8c-1.2-1.2-1.7-3-1.2-4.6l0.3-1.1c0.7-2.5-0.8-5.1-3.3-5.8l-1.2-0.3
					c-1.7-0.4-3-1.7-3.4-3.4l-0.3-1.2c-0.6-2.5-3.3-4.1-5.8-3.3l-1.1,0.3c-1.6,0.5-3.4,0-4.6-1.2l-0.8-0.9c-1.8-1.9-4.8-1.9-6.7,0
					l-0.8,0.9c-1.2,1.2-3,1.7-4.6,1.2l-1.1-0.3c-2.5-0.7-5.1,0.8-5.8,3.3l-0.3,1.2c-0.4,1.7-1.7,3-3.4,3.4L96.2,70
					c-2.5,0.6-4.1,3.3-3.3,5.8l0.3,1.1c0.5,1.6,0,3.4-1.2,4.6l-0.9,0.8c-1.9,1.8-1.9,4.8,0,6.7l0.9,0.8c1.2,1.2,1.7,3,1.2,4.6
					l-0.3,1.1c-0.7,2.5,0.8,5.1,3.3,5.8l1.2,0.3c1.7,0.4,3,1.7,3.4,3.4l0.3,1.2c0.6,2.5,3.3,4.1,5.8,3.3l1.1-0.3
					c1.6-0.5,3.4,0,4.6,1.2l0.8,0.9c1.8,1.9,4.8,1.9,6.7,0l0.8-0.9c1.2-1.2,3-1.7,4.6-1.2l1.1,0.3c2.5,0.7,5.1-0.8,5.8-3.3l0.3-1.2
					c0.4-1.7,1.7-3,3.4-3.4l1.2-0.3c2.5-0.6,4.1-3.3,3.3-5.8l-0.3-1.1c-0.5-1.6,0-3.4,1.2-4.6l0.9-0.8
					C144.2,87.2,144.2,84.2,142.3,82.4z M116.7,104.9c-10.6,0-19.2-8.6-19.2-19.2s8.6-19.2,19.2-19.2c10.6,0,19.2,8.6,19.2,19.2
					S127.3,104.9,116.7,104.9z"/>
			</g>
			<g>
				<polygon fill-rule="evenodd" clip-rule="evenodd" fill="#FFFFFF" points="111,138.6 105.5,130.9 96.8,134.8 107,104.9 
					121.2,108.8 				"/>
				<polygon fill-rule="evenodd" clip-rule="evenodd" fill="#FFFFFF" points="122.3,138.6 127.9,130.9 136.6,134.8 126.4,104.9 
					112.1,108.8 				"/>
			</g>
			<polygon fill-rule="evenodd" clip-rule="evenodd" fill="#FFFFFF" points="129.8,79.6 130.8,81.6 133.1,81.9 131.5,83.5 
				131.8,85.7 129.8,84.7 127.8,85.7 128.2,83.5 126.6,81.9 128.8,81.6 			"/>
			<g>
				<g>
					<polygon fill-rule="evenodd" clip-rule="evenodd" fill="#FFFFFF" points="103.5,79.6 104.5,81.6 106.7,81.9 105.1,83.5 
						105.5,85.7 103.5,84.7 101.5,85.7 101.9,83.5 100.3,81.9 102.5,81.6 					"/>
				</g>
			</g>
			<polygon fill-rule="evenodd" clip-rule="evenodd" fill="#FFFFFF" points="116.5,69.2 117.5,71.3 119.7,71.6 118.1,73.2 
				118.5,75.4 116.5,74.4 114.5,75.4 114.9,73.2 113.2,71.6 115.5,71.3 			"/>
			<polygon fill-rule="evenodd" clip-rule="evenodd" fill="#FFFFFF" points="108.6,73.7 109.6,75.7 111.8,76.1 110.2,77.6 
				110.6,79.9 108.6,78.8 106.6,79.9 107,77.6 105.3,76.1 107.6,75.7 			"/>
			<polygon fill-rule="evenodd" clip-rule="evenodd" fill="#FFFFFF" points="124.9,73.4 125.9,75.4 128.2,75.8 126.5,77.4 
				126.9,79.6 124.9,78.5 122.9,79.6 123.3,77.4 121.7,75.8 123.9,75.4 			"/>
		</g>
	</g>
	<rect x="44.5" y="159.7" fill="none" width="143.4" height="10.4"/>
	<rect x="43.9" y="178.8" fill="none" width="144" height="35.9"/>
	<text transform="matrix(1 0 0 1 58.294 188.7568)"><tspan x="0" y="0" fill="#FFFFFF" font-family="'AGaramondPro-Regular'" font-size="14">Good work done by </tspan><tspan x="20.1" y="14" fill="#FFFFFF" font-family="'AGaramondPro-Regular'" font-size="14">good people</tspan></text>
</g>
</svg>
