<?xml version="1.0" encoding="utf-8"?>
<!-- Generator: Adobe Illustrator 18.1.1, SVG Export Plug-In . SVG Version: 6.00 Build 0)  -->
<svg version="1.1" id="Layer_1" xmlns="http://www.w3.org/2000/svg" xmlns:xlink="http://www.w3.org/1999/xlink" x="0px" y="0px"
	 viewBox="0 0 54 54" enable-background="new 0 0 54 54" xml:space="preserve">
<g>
	<path fill="#727781" d="M27.3,53.9c-14.7,0-26.6-12-26.6-26.6c0-14.7,12-26.6,26.6-26.6c14.7,0,26.6,12,26.6,26.6
		C53.9,41.9,42,53.9,27.3,53.9z"/>
	<circle fill="#FFC828" cx="27.3" cy="27.2" r="23.8"/>
	<g>
		<path fill="#727781" d="M27.3,15.5c0,0,0.4,0,0.5,0c1.2,0,2.3,0.1,3.3,0.2c-0.7-1.1-1.4-2.2-2-3.3c-0.4,0-0.8,0-1.2-0.1
			c-0.1,0-0.2,0-0.4,0v0c0,0,0,0-0.1,0c0,0,0,0-0.1,0v0c-0.1,0-0.2,0-0.4,0c-0.4,0-0.4,0-0.8,0c-0.6,1-1.2,2.2-1.9,3.3
			c1-0.1,1.7-0.2,2.8-0.2C27.1,15.5,27.2,15.5,27.3,15.5z"/>
		<path fill="#727781" d="M35.7,36.1c1.5-0.1,3.2-0.2,4.7-0.3c0.6-0.7,1.1-1.2,1.5-2.2c-0.7-0.9-1.4-1.9-2.2-2.9
			c-0.4,1.5-1.1,2.3-1.8,3.1C37.2,34.7,36.5,35.4,35.7,36.1z"/>
		<path fill="#727781" d="M32.5,38.6c-2,1.4-3.9,2.5-5.2,3.2c-1.2-0.7-3.3-1.5-5.3-2.9c-1.7-0.3-3.8-0.5-5.8-0.6
			c4.7,4.3,11.1,7,11.1,7s0,0,0.1,0c0,0,0.1,0,0.1,0s6.3-3,10.9-7.3C36.3,38.1,34.3,38.3,32.5,38.6z"/>
		<path fill="#727781" d="M44.3,16.7c0,0-5-3.1-12.8-4c-0.8-0.1-1.6-0.2-2.5-0.2c0.6,1.1,1.3,2.2,2,3.3c0.9,0.1,1.7,0.2,2.6,0.4
			c3.4,0.7,6,1.7,7.5,2.4c-0.1,2.6-0.2,5.5-0.7,8.3c0.8,1.2,1.5,2.3,2.3,3.5C44.4,24.3,44.3,16.7,44.3,16.7z"/>
		<path fill="#727781" d="M40.3,35.9C40.3,35.9,40.4,35.9,40.3,35.9c-1.5,0.1-3.2,0.1-4.7,0.2c-1,0.9-2.1,1.7-3.1,2.4
			c1.7-0.3,3.8-0.5,5.8-0.6C39.1,37.3,39.7,36.6,40.3,35.9z"/>
		<path fill="#727781" d="M22.9,12.7c-7.9,0.9-12.5,4-12.5,4s-0.1,8.1,1.6,14.2c0.2,0.8,0.5,1.6,0.8,2.3c0.4,1,0.9,1.6,1.5,2.3
			c1.5,0.1,3.1,0.1,4.6,0.2c-0.8-0.7-1.5-1.1-2.1-1.9c-0.7-0.8-1.3-2.2-1.7-3.8c-0.3-0.9-0.5-1.9-0.7-2.9c-0.5-2.8-0.8-6-0.8-8.7
			c1.5-0.7,3.8-1.8,7.2-2.4C21.6,15,22.3,13.8,22.9,12.7z"/>
		<g>
			<path fill="#727781" d="M39.6,30.3c0.3-0.9,0.5-2,0.7-3c-0.8-1.3-1.6-2.6-2.1-3.6c-2.5,1.9-5.9,3-9.2,3.3
				c-0.1-3.1,6.9-7.4,6.9-7.4c-0.7-0.9-1.5-1.7-2.3-3c-0.8-0.2-1.7-0.3-2.6-0.4c0.7,1,1.3,1.6,1.9,2.4c-1.5,1.3-4.5,4.3-5.6,5.8
				c-1-1.5-3.9-4.8-5.5-5.8c0.7-0.9,1.3-1.8,1.9-2.8c0.7-1.1,1.3-2.2,1.9-3.3c0.6-1.1,1.2-2.1,1.6-2.9c0.4,0.7,1,1.4,1.7,2.5
				c0.9,0,1.7,0.1,2.5,0.2C29.3,8.4,27.4,5,27.4,5s-1.8,3.8-4,7.7c-0.7,1.2-1.4,2.4-2.1,3.5c-0.8,1.3-1.6,2.5-2.4,3.4
				c0,0,6.6,4.2,6.6,7.4c-3.5-0.3-6.7-1.4-8.9-3.3c-0.5,1-0.8,2.2-1.7,3.5c0.2,1,0.4,2,0.7,2.9c1-1.4,1.5-2.6,2.1-3.5
				c1.6,1,5.3,2.6,7.1,3.2c-0.9,1.6-2.2,4.7-2.5,6.5c-0.8-0.1-2-0.2-3.3-0.2c-1.5-0.1-3.1-0.1-4.6-0.2c-1.3-0.1-2.4-0.1-3.2-0.2
				c0.4-0.6,0.8-1.3,1.5-2.3c-0.3-0.7-0.6-1.5-0.8-2.3c-2.5,3.6-4.6,6.5-4.6,6.5s4.5,0,9.2,0.3c2,0.1,4.1,0.3,5.8,0.6
				c0.7,0.1,1.3,0.2,1.8,0.4c0,0,0.6-7.3,3.4-9c2.8,1.6,3.4,9,3.4,9c0.5-0.1,0.6-0.3,1.3-0.4c1.1-0.7,2.1-1.6,3.1-2.4
				c-1.3,0.1-2,0.2-2.8,0.3c-0.3-1.8-1-5.1-2-6.6c2-0.8,5.1-1.9,6.7-2.9C37.7,27.8,38.6,29,39.6,30.3z"/>
			<path fill="#727781" d="M42.7,30.9c-0.2,0.8-0.5,1.6-0.8,2.4c0.7,0.9,1.3,1.8,1.7,2.4c-0.8,0.1-1.4,0.1-2.7,0.2c0,0-0.1,0-0.1,0
				c-0.6,0.7-1.3,1.4-2,2c4.7-0.3,8.8-0.3,8.8-0.3S45.2,34.5,42.7,30.9z"/>
		</g>
		<path fill="#727781" d="M39.6,30.3c0.8,1,1.6,2.1,2.3,3c0.3-0.7,0.6-1.5,0.8-2.4c-0.8-1.2-1.7-2.5-2.4-3.7
			C40.1,28.4,39.8,29.4,39.6,30.3z"/>
	</g>
	<path fill="#727781" d="M28.4,4.2c0-0.2,0.1-0.3,0.3-0.3c0.2,0,0.2,0,0.4,0c0.4,0,0.8,0.1,1.3,0.1c0.4,0.1,0.8-0.1,1-0.5
		c0.3-0.7,0.5-1.4,0.8-2.1c0.2-0.4-0.1-0.8-0.5-0.9c-2.8-0.4-5.7-0.4-8.5,0c-0.4,0.1-0.7,0.5-0.5,0.9c0.3,0.7,0.5,1.4,0.8,2.1
		c0.1,0.4,0.6,0.6,1,0.5c0.4,0,0.8-0.1,1.2-0.1c0.2,0,0.5-0.1,0.7-0.1c0.2,0,0.3,0.1,0.3,0.3l0,2.6h1.8L28.4,4.2z"/>
	<path fill="#727781" d="M6.6,37.2c-0.2,0.1-0.4,0-0.4-0.1c-0.1-0.1-0.1-0.2-0.2-0.3c-0.2-0.4-0.3-0.8-0.5-1.2
		C5.4,35.2,5,34.9,4.6,35c-0.7,0.1-1.5,0.2-2.2,0.3c-0.4,0-0.6,0.4-0.5,0.9c1,2.7,2.4,5.2,4.2,7.5c0.3,0.3,0.8,0.3,1,0
		c0.5-0.6,1-1.2,1.5-1.7c0.3-0.3,0.2-0.8,0-1.1c-0.2-0.3-0.5-0.6-0.7-1c-0.1-0.2-0.3-0.4-0.4-0.6c-0.1-0.2,0-0.4,0.1-0.4l2.3-1.3
		l-0.9-1.6L6.6,37.2z"/>
	<path fill="#727781" d="M48.2,37.1c0.2,0.1,0.4,0,0.4-0.1c0.1-0.1,0.1-0.2,0.2-0.3c0.2-0.4,0.3-0.8,0.5-1.2
		c0.1-0.4,0.5-0.6,0.9-0.6c0.7,0.1,1.5,0.2,2.2,0.3c0.4,0,0.6,0.4,0.5,0.9c-1,2.7-2.4,5.2-4.2,7.5c-0.3,0.3-0.8,0.3-1,0
		c-0.5-0.6-1-1.2-1.5-1.7c-0.3-0.3-0.2-0.8,0-1.1c0.2-0.3,0.5-0.6,0.7-1c0.1-0.2,0.3-0.4,0.4-0.6c0.1-0.2,0-0.4-0.1-0.4L45,37.4
		l0.9-1.6L48.2,37.1z"/>
</g>
</svg>
