<?xml version="1.0" encoding="utf-8"?>
<!-- Generator: Adobe Illustrator 18.1.1, SVG Export Plug-In . SVG Version: 6.00 Build 0)  -->
<svg version="1.1" id="Layer_1" xmlns="http://www.w3.org/2000/svg" xmlns:xlink="http://www.w3.org/1999/xlink" x="0px" y="0px"
	 viewBox="0 0 232 263" enable-background="new 0 0 232 263" xml:space="preserve">
<rect x="0.2" y="-0.1" fill="#FDB71A" width="231.7" height="263.4"/>
<rect x="44.4" y="158.6" fill="none" width="143.4" height="13"/>
<text transform="matrix(1 0 0 1 92.0733 171.3791)" fill="#FFFFFF" font-family="'Copperplate-Bol'" font-size="18">TRUST</text>
<rect x="44.4" y="179.3" fill="none" width="143.4" height="35.9"/>
<text transform="matrix(1 0 0 1 51.7603 189.2277)"><tspan x="0" y="0" fill="#FFFFFF" font-family="'AGaramondPro-Regular'" font-size="14">Treating you and your </tspan><tspan x="1.4" y="14" fill="#FFFFFF" font-family="'AGaramondPro-Regular'" font-size="14">property with respect</tspan></text>
<g>
	<circle fill="#5F6369" cx="116.1" cy="99.1" r="50"/>
	<path fill="#FDB71A" d="M116.1,144.5c-25,0-45.4-20.4-45.4-45.4s20.4-45.4,45.4-45.4c25,0,45.4,20.4,45.4,45.4
		S141.2,144.5,116.1,144.5z"/>
	<g>
		<path fill="none" d="M117.4,68.8h-2.5c-5.5,0-10,4.5-10,10v13.5l10.4-11.5c0.5-0.5,1.2-0.5,1.7,0l10.4,11.5V78.8
			C127.4,73.3,122.9,68.8,117.4,68.8z"/>
		<path fill="#FFFFFF" d="M138,104.1l-5.8-6.4V78.8c0-8.2-6.7-14.8-14.8-14.8h-2.5c-8.2,0-14.8,6.7-14.8,14.8v18.9l-5.8,6.4
			c-0.7,0.7-0.1,1.9,0.8,1.9h4.2v26.8H133V106h4.2C138.2,106,138.7,104.8,138,104.1z M118,116.1v7c0,1.1-0.9,1.9-1.9,1.9
			s-1.9-0.9-1.9-1.9v-7c-1.2-0.7-2.1-2-2.1-3.5c0-2.2,1.8-4,4-4c2.2,0,4,1.8,4,4C120.1,114.1,119.3,115.4,118,116.1z M127.4,92.3
			L117,80.8c-0.5-0.5-1.2-0.5-1.7,0l-10.4,11.5V78.8c0-5.5,4.5-10,10-10h2.5c5.5,0,10,4.5,10,10V92.3z"/>
	</g>
</g>
</svg>
