<?xml version="1.0" encoding="utf-8"?>
<!-- Generator: Adobe Illustrator 18.1.1, SVG Export Plug-In . SVG Version: 6.00 Build 0)  -->
<svg version="1.1" id="Layer_1" xmlns="http://www.w3.org/2000/svg" xmlns:xlink="http://www.w3.org/1999/xlink" x="0px" y="0px"
	 viewBox="0 0 232 263" enable-background="new 0 0 232 263" xml:space="preserve">
<rect x="0.2" y="-0.1" fill="#5F6369" width="231.7" height="263.4"/>
<rect x="44.4" y="158.6" fill="none" width="143.4" height="13"/>
<text transform="matrix(1 0 0 1 91.0923 171.3791)" fill="#FFFFFF" font-family="'Copperplate-Bol'" font-size="18">VALUE</text>
<rect x="44.4" y="179.3" fill="none" width="143.4" height="35.9"/>
<text transform="matrix(1 0 0 1 67.0626 189.2277)"><tspan x="0" y="0" fill="#FFFFFF" font-family="'AGaramondPro-Regular'" font-size="14">Quality work at a </tspan><tspan x="-3.8" y="14" fill="#FFFFFF" font-family="'AGaramondPro-Regular'" font-size="14">competative price</tspan></text>
<g>
	<circle fill="#FDB71A" cx="116.6" cy="98.4" r="50"/>
	<path fill="#5F6369" d="M116.6,143.7c-25,0-45.4-20.4-45.4-45.4S91.6,53,116.6,53c25,0,45.4,20.4,45.4,45.4
		S141.7,143.7,116.6,143.7z"/>
	<g>
		<g>
			<path fill="none" d="M127.2,84.9c-0.2-0.1-4.4-1.5-9.7-1.5c-5.3,0-9.5,1.5-9.7,1.5l0.6,1.6c0,0,4.2-1.5,9.2-1.5
				c5,0,9.1,1.4,9.2,1.5L127.2,84.9z"/>
			<path fill="#FFFFFF" d="M150.5,105l-3-1c0.2,1.1,0.3,2.3,0.3,3.5c0,3.6-0.7,6.8-2.1,9.6l3.6-1.2c0.8-0.3,1.4-0.9,1.5-1.8l1.1-6.8
				C152.1,106.3,151.5,105.3,150.5,105z"/>
			<path fill="#FFFFFF" d="M147.5,104l-0.2-0.1l-1.7,13.2l0.1,0c1.3-2.8,2.1-6,2.1-9.6C147.7,106.3,147.6,105.1,147.5,104z"/>
		</g>
		<path fill="#FFFFFF" d="M147.5,104c-0.7-4.9-2.8-9.4-6.1-13.1c2.1-3.4,3.1-6.3,3.6-8c0.3-0.9-0.3-1.7-1.2-1.9
			c-2.4-0.4-7.2-0.6-11.5,3.1c-4.3-2.1-9.4-3.3-14.8-3.3c-11.1,0-20.1,4.8-25.2,12.2c-0.2-0.4-0.3-0.7-0.5-1c-1.3-1.9-3.7-3-6.1-2.8
			c-2.2,0.2-3.9,1.5-4.8,3.6c-0.4,0.9-0.4,1.9-0.2,2.9c0.2,0.7,0.6,1.3,1.1,1.9c1.4,1.5,3.5,2.3,5.2,1.7c0.8-0.3,2.2-1,2.5-3.4
			c0.1-0.9-0.6-2.6-1.9-3.2c-0.5-0.2-1.9-0.5-3.2,1.2c-0.4,0.5-0.3,1.2,0.2,1.6c0.5,0.4,1.2,0.3,1.6-0.2c0.3-0.4,0.5-0.5,0.6-0.5
			c0.2,0.1,0.5,0.6,0.5,0.8c-0.1,0.8-0.4,1.3-0.9,1.5c-0.8,0.3-2-0.2-2.8-1.1c-0.4-0.4-1-1.3-0.5-2.3c0.7-1.7,2-2.2,3-2.2
			c1.5-0.1,3.1,0.6,4,1.8c0.5,0.7,0.7,1.7,0.7,2.6c-1.8,3.5-2.8,7.5-2.8,11.6c0,13.1,9.9,26.2,9.9,26.2h11.6V130
			c1.6,0.2,6.6,0.3,8.3,0.3h3.3c0.3,0,0.7,0,1,0l0.7,3.3H134v-5.9c5.2-2.2,9.3-5.8,11.6-10.7l-0.1,0l1.7-13.2L147.5,104z
			 M126.6,86.4c0,0-4.2-1.5-9.2-1.5c-5,0-9.1,1.4-9.2,1.5l-0.6-1.6c0.2-0.1,4.4-1.5,9.7-1.5c5.3,0,9.5,1.5,9.7,1.5L126.6,86.4z
			 M137.3,103.1c-1.4,0-2.5-1.1-2.5-2.5c0-1.4,1.1-2.5,2.5-2.5s2.5,1.1,2.5,2.5C139.8,102,138.7,103.1,137.3,103.1z"/>
	</g>
	<g>
		<path fill="#FFFFFF" d="M114.2,65.1c-0.2,0.2-0.2,0.4-0.2,0.6c0,0.2,0.1,0.3,0.2,0.4c0.1,0.1,0.3,0.2,0.5,0.3
			c0.3,0.1,0.7,0.1,1.2,0.2v-2c-0.4,0-0.7,0.1-0.9,0.2C114.6,64.8,114.4,64.9,114.2,65.1z"/>
		<path fill="#FFFFFF" d="M116.8,71c0.4,0,0.8-0.1,1.1-0.3c0.5-0.3,0.8-0.6,0.8-1c0-0.1,0-0.3-0.1-0.4c-0.1-0.1-0.2-0.2-0.4-0.3
			c-0.3-0.1-0.7-0.2-1.4-0.2V71z"/>
		<path fill="#FFFFFF" d="M116.2,59.5c-4.6,0-8.3,3.7-8.3,8.3s3.7,8.3,8.3,8.3c4.6,0,8.3-3.7,8.3-8.3S120.8,59.5,116.2,59.5z
			 M118.5,65.1c-0.6-0.3-1.1-0.5-1.7-0.5v2.1l0.2,0c1.1,0.1,2,0.4,2.6,0.8c0.3,0.2,0.6,0.5,0.7,0.9s0.3,0.7,0.3,1.2
			c0,0.6-0.2,1.2-0.5,1.6s-0.9,0.8-1.6,1.1c-0.6,0.2-1.1,0.3-1.7,0.3V73c0,0.1,0,0.2,0.1,0.3c0.1,0.1,0.2,0.1,0.3,0.2v0.2h-1.9v-0.2
			c0.2,0,0.3-0.1,0.3-0.2c0.1-0.1,0.1-0.2,0.1-0.3v-0.4c-1.1-0.1-2.2-0.4-3.3-1c-0.1,0-0.2-0.1-0.2-0.1c-0.1,0-0.2,0-0.3,0.1
			l-0.2-0.1l1-2.3l0.2,0.1c0,0,0,0.1,0,0.1c0,0.2,0.1,0.5,0.4,0.7c0.3,0.2,0.7,0.4,1.1,0.5c0.5,0.2,0.9,0.2,1.3,0.3v-2.3
			c-0.7-0.1-1.2-0.1-1.5-0.2c-0.3-0.1-0.6-0.2-0.9-0.3c-0.4-0.2-0.7-0.5-1-0.9c-0.2-0.4-0.3-0.8-0.3-1.3c0-0.9,0.3-1.6,1-2.1
			c0.7-0.5,1.6-0.8,2.7-0.8v-0.3c0-0.1,0-0.2-0.1-0.3c-0.1-0.1-0.2-0.1-0.3-0.2v-0.2h1.9v0.2c-0.2,0-0.3,0.1-0.3,0.2
			c-0.1,0.1-0.1,0.2-0.1,0.3V63c0.4,0,0.9,0.1,1.3,0.2s1,0.3,1.7,0.6c0.1,0,0.2,0.1,0.3,0.1c0.1,0,0.2-0.1,0.3-0.2l0.2,0.1l-1.1,2.2
			l-0.2-0.1c0,0,0-0.1,0-0.1C119.4,65.6,119.1,65.4,118.5,65.1z"/>
	</g>
</g>
</svg>
